<?xml version="1.0" encoding="UTF-8"?>
<svg id="Capa_1" xmlns="http://www.w3.org/2000/svg" version="1.1" viewBox="0 0 727.43 195.13">
  <!-- Generator: Adobe Illustrator 30.3.0, SVG Export Plug-In . SVG Version: 2.1.3 Build 182)  -->
  <defs>
    <style>
      .st0 {
        fill: #8b9db7;
      }

      .st1 {
        fill: #e94e1b;
      }

      .st2 {
        fill: #1d2a40;
      }
    </style>
  </defs>
  <g>
    <g>
      <path class="st0" d="M428.33,104.29c0,2.88-1.06,5.14-3.19,6.77-2.13,1.63-5.22,2.45-9.26,2.45-3.36,0-6.11-.52-8.26-1.55-2.15-1.03-3.23-2.28-3.23-3.74,0-.65.16-1.24.48-1.77.32-.54.76-.98,1.32-1.32,1.2.77,2.59,1.48,4.16,2.13,1.57.65,3.34.97,5.32.97,4.04,0,6.07-1.29,6.07-3.87,0-1.12-.34-2.01-1.03-2.68-.69-.67-1.72-1.17-3.1-1.52l-4.52-1.16c-2.88-.65-5.01-1.68-6.39-3.1-1.38-1.42-2.06-3.25-2.06-5.48,0-2.49,1.02-4.6,3.06-6.32,2.04-1.72,5.02-2.58,8.94-2.58,2.02,0,3.82.21,5.39.61,1.57.41,2.8.98,3.68,1.71s1.32,1.55,1.32,2.45c0,.65-.15,1.23-.45,1.74-.3.52-.69.9-1.16,1.16-.52-.3-1.21-.65-2.06-1.03-.86-.39-1.84-.71-2.94-.97-1.1-.26-2.23-.39-3.39-.39-1.81,0-3.24.31-4.29.94-1.05.62-1.58,1.52-1.58,2.68,0,.82.3,1.54.9,2.16.6.62,1.61,1.09,3.03,1.39l3.81.97c3.23.73,5.6,1.86,7.13,3.39,1.53,1.53,2.29,3.52,2.29,5.97Z"/>
      <path class="st0" d="M445.43,97.39h-6.58v-23.29c.26-.09.67-.19,1.23-.32.56-.13,1.16-.19,1.81-.19,1.2,0,2.1.24,2.68.71.58.47.87,1.25.87,2.32v20.78ZM438.85,95.58h6.58v8.26c0,1.55.45,2.65,1.35,3.29s2.17.97,3.81.97c.69,0,1.46-.11,2.32-.32.86-.21,1.57-.47,2.13-.77.3.3.57.68.81,1.13.24.45.36.96.36,1.52,0,1.12-.57,2.03-1.71,2.74-1.14.71-2.85,1.06-5.13,1.06-3.18,0-5.73-.71-7.65-2.13-1.91-1.42-2.87-3.79-2.87-7.1v-8.65ZM442.59,88.36v-5.29h12.84c.17.26.33.62.48,1.1.15.47.23.97.23,1.48,0,.9-.21,1.58-.61,2.03-.41.45-.98.68-1.71.68h-11.23Z"/>
      <path class="st0" d="M472.72,99.07h-6.65v-16.52c.3-.09.73-.19,1.29-.32.56-.13,1.16-.19,1.81-.19,1.2,0,2.1.23,2.68.68.58.45.87,1.26.87,2.42v13.94ZM466.08,101.32v-5.48h6.65v5.29c0,2.5.66,4.29,1.97,5.39,1.31,1.1,3.13,1.65,5.45,1.65,1.55,0,2.86-.16,3.94-.48,1.08-.32,1.89-.66,2.45-1v-10.84h6.65v11.1c0,.95-.15,1.72-.45,2.32s-.9,1.18-1.81,1.74c-1.08.65-2.54,1.23-4.39,1.74-1.85.52-4,.77-6.45.77-2.88,0-5.38-.43-7.49-1.29-2.11-.86-3.72-2.19-4.84-4-1.12-1.81-1.68-4.11-1.68-6.9ZM493.18,99.07h-6.65v-16.52c.3-.09.73-.19,1.29-.32s1.14-.19,1.74-.19c1.25,0,2.16.23,2.74.68.58.45.87,1.26.87,2.42v13.94Z"/>
      <path class="st0" d="M525.57,106.68v-20.97h6.65v21.49c0,.9-.19,1.63-.58,2.19-.39.56-1.01,1.1-1.87,1.61-.95.6-2.26,1.17-3.94,1.71s-3.61.81-5.81.81c-3.27,0-6.12-.56-8.55-1.68-2.43-1.12-4.32-2.85-5.68-5.19-1.36-2.34-2.03-5.34-2.03-9s.67-6.8,2-9.16c1.33-2.37,3.16-4.12,5.48-5.26,2.32-1.14,4.86-1.71,7.61-1.71,1.63,0,3.16.22,4.58.65,1.42.43,2.54.97,3.36,1.61v5.81c-.77-.73-1.76-1.37-2.97-1.9-1.21-.54-2.6-.81-4.19-.81-1.68,0-3.22.35-4.61,1.06-1.4.71-2.51,1.86-3.32,3.45-.82,1.59-1.23,3.7-1.23,6.32,0,3.61.86,6.26,2.58,7.94,1.72,1.68,4.02,2.52,6.9,2.52,1.33,0,2.44-.15,3.32-.45.88-.3,1.65-.64,2.29-1.03ZM532.21,87.19h-6.65v-16.45c.3-.09.73-.19,1.29-.32.56-.13,1.14-.19,1.74-.19,1.25,0,2.16.23,2.74.68.58.45.87,1.24.87,2.36v13.94Z"/>
      <path class="st0" d="M544.09,73.19c0-1.12.39-2.04,1.16-2.77s1.72-1.1,2.84-1.1c1.2,0,2.17.37,2.9,1.1s1.1,1.66,1.1,2.77-.37,1.99-1.1,2.74c-.73.75-1.7,1.13-2.9,1.13-1.12,0-2.06-.38-2.84-1.13-.77-.75-1.16-1.67-1.16-2.74ZM551.44,98.87h-6.65v-16.26c.3-.09.73-.18,1.29-.29.56-.11,1.16-.16,1.81-.16,1.2,0,2.1.23,2.68.68.58.45.87,1.24.87,2.36v13.68ZM544.8,95.58h6.65v16.91c-.3.09-.72.19-1.26.32s-1.13.19-1.77.19c-1.2,0-2.11-.24-2.71-.71-.6-.47-.9-1.25-.9-2.32v-14.39Z"/>
      <path class="st0" d="M592.8,97.52c0,3.23-.62,6.04-1.87,8.45-1.25,2.41-3.01,4.27-5.29,5.58s-4.97,1.97-8.07,1.97-5.79-.66-8.07-1.97-4.04-3.16-5.29-5.55c-1.25-2.39-1.87-5.22-1.87-8.49s.63-6.1,1.9-8.49c1.27-2.39,3.05-4.24,5.36-5.55,2.3-1.31,4.96-1.97,7.97-1.97s5.72.66,8,1.97c2.28,1.31,4.05,3.16,5.32,5.55,1.27,2.39,1.9,5.22,1.9,8.49ZM577.57,86.87c-2.58,0-4.64.95-6.16,2.84-1.53,1.89-2.29,4.5-2.29,7.81s.74,5.97,2.23,7.84c1.48,1.87,3.56,2.81,6.23,2.81s4.74-.95,6.23-2.84c1.48-1.89,2.23-4.5,2.23-7.81s-.75-5.91-2.26-7.81c-1.51-1.89-3.57-2.84-6.19-2.84Z"/>
    </g>
    <g>
      <path class="st2" d="M126.06,93.81v24.21c0,5.25-2.78,6.9-6.49,6.9h-1.55c-3.81,0-6.49-1.55-6.49-6.9v-21.94c0-6.7-3.4-10.82-9.27-10.82-5.05,0-8.96,2.68-11.02,6.59v26.17c0,5.25-2.68,6.9-6.39,6.9h-1.55c-3.91,0-6.59-1.55-6.59-6.9v-42.65c0-.52,2.58-1.65,5.46-1.65,3.91,0,7.83,1.96,8.65,8.45,3.61-5.36,8.86-9.07,16.59-9.07,13.08,0,18.65,9.27,18.65,20.71Z"/>
      <path class="st2" d="M160.78,73.1c15.86,0,26.68,10.82,26.68,26.48s-10.92,26.37-26.89,26.37-26.68-10.71-26.68-26.58,10.92-26.27,26.89-26.27ZM160.67,84.43c-8.14,0-14.01,6.28-14.01,14.94s5.87,15.14,14.01,15.14,13.91-6.39,13.91-14.94-5.77-15.14-13.91-15.14Z"/>
      <path class="st2" d="M193.23,118.53c0-3.3.93-4.33,3.19-6.9l22.46-26.17h-19.47c-3.91,0-5.77-1.65-5.77-5.25v-.72c0-3.4,1.85-5.25,5.77-5.25h32.24c4.02,0,5.56,2.47,5.56,5.05v.72c0,3.09-.82,4.22-3.09,6.8l-23.08,26.47h21.32c3.91,0,5.77,1.65,5.77,5.25v.62c0,3.5-1.85,5.36-5.77,5.36h-33.58c-4.02,0-5.56-2.58-5.56-5.15v-.82Z"/>
      <path class="st2" d="M270.69,73.1c15.86,0,26.68,10.82,26.68,26.48s-10.92,26.37-26.89,26.37-26.68-10.71-26.68-26.58,10.92-26.27,26.89-26.27ZM270.59,84.43c-8.14,0-14.01,6.28-14.01,14.94s5.87,15.14,14.01,15.14,13.91-6.39,13.91-14.94-5.77-15.14-13.91-15.14Z"/>
      <path class="st2" d="M329.1,73.1c14.94,0,25.03,10.4,25.03,25.14v.93c-.1,2.47-.82,3.81-3.5,3.81h-34.82l.31,1.65c1.55,6.59,7.01,10.82,14.42,10.82s11.85-3.3,14.11-7.31c.1-.21,7.11.41,7.11,6.18,0,2.78-1.96,5.67-5.56,7.83-3.71,2.27-9.07,3.81-16.07,3.81-16.38,0-27.09-10.2-27.09-26.17s10.92-26.68,26.06-26.68ZM329,83.09c-6.9,0-12.05,4.94-12.98,11.95h24.72c-.41-7.31-4.84-11.95-11.74-11.95Z"/>
    </g>
    <path class="st0" d="M374.8,48.91h1.99c5.85,0,10.6,4.75,10.6,10.6v86.15h-1.99c-5.85,0-10.6-4.75-10.6-10.6V48.91h0Z" transform="translate(762.18 194.56) rotate(-180)"/>
  </g>
  <g>
    <rect class="st1" x="617.19" y="94.34" width="5.88" height="5.88" transform="translate(989.84 604.57) rotate(-135)"/>
    <rect class="st1" x="625.5" y="94.34" width="5.88" height="5.88" transform="translate(1004.03 610.45) rotate(-135)"/>
    <rect class="st1" x="608.88" y="94.34" width="5.88" height="5.88" transform="translate(975.65 598.69) rotate(-135)"/>
    <rect class="st1" x="629.66" y="98.5" width="5.88" height="5.88" transform="translate(1008.19 620.48) rotate(-135)"/>
    <rect class="st1" x="625.5" y="102.66" width="5.88" height="5.88" transform="translate(998.15 624.64) rotate(-135)"/>
    <rect class="st1" x="633.82" y="94.34" width="5.88" height="5.88" transform="translate(1018.23 616.33) rotate(-135)"/>
    <rect class="st1" x="629.66" y="90.19" width="5.88" height="5.88" transform="translate(1014.07 606.29) rotate(-135)"/>
    <rect class="st1" x="625.5" y="86.03" width="5.88" height="5.88" transform="translate(1009.91 596.25) rotate(-135)"/>
  </g>
</svg>